<?xml version="1.0" encoding="UTF-8" standalone="no"?>
<!-- Created with Inkscape (http://www.inkscape.org/) -->

<svg
   xmlns:dc="http://purl.org/dc/elements/1.1/"
   xmlns:cc="http://creativecommons.org/ns#"
   xmlns:rdf="http://www.w3.org/1999/02/22-rdf-syntax-ns#"
   xmlns:svg="http://www.w3.org/2000/svg"
   xmlns="http://www.w3.org/2000/svg"
   xmlns:sodipodi="http://sodipodi.sourceforge.net/DTD/sodipodi-0.dtd"
   xmlns:inkscape="http://www.inkscape.org/namespaces/inkscape"
   width="256"
   height="256"
   id="svg2"
   version="1.1"
   inkscape:version="0.48.4 r9939"
   sodipodi:docname="logo.svg">
  <title
     id="title2985">Bit Kit Logo</title>
  <defs
     id="defs4">
    <linearGradient
       y2="63.996323"
       x2="0.0004394635"
       y1="-0.00059563987"
       x1="0.0004394635"
       id="coin-gradient"
       gradientTransform="scale(0.99994167,1.0000583)"
       gradientUnits="userSpaceOnUse">
      <stop
         id="stop12"
         style="stop-color:#f9aa4b"
         offset="0%" />
      <stop
         id="stop14"
         style="stop-color:#f7931a"
         offset="100%" />
    </linearGradient>
    <filter
       color-interpolation-filters="sRGB"
       id="_drop-shadow">
      <feGaussianBlur
         id="feGaussianBlur7"
         stdDeviation="1"
         result="blur-out"
         in="SourceAlpha" />
      <feBlend
         id="feBlend9"
         mode="normal"
         in2="blur-out"
         in="SourceGraphic" />
    </filter>
  </defs>
  <sodipodi:namedview
     id="base"
     pagecolor="#ffffff"
     bordercolor="#666666"
     borderopacity="1.0"
     inkscape:pageopacity="0.0"
     inkscape:pageshadow="2"
     inkscape:zoom="0.47423765"
     inkscape:cx="861.39357"
     inkscape:cy="109.38331"
     inkscape:document-units="px"
     inkscape:current-layer="g3819"
     showgrid="false"
     inkscape:window-width="1366"
     inkscape:window-height="715"
     inkscape:window-x="546"
     inkscape:window-y="1072"
     inkscape:window-maximized="1" />
  <metadata
     id="metadata7">
    <rdf:RDF>
      <cc:Work
         rdf:about="">
        <dc:format>image/svg+xml</dc:format>
        <dc:type
           rdf:resource="http://purl.org/dc/dcmitype/StillImage" />
        <dc:title>Bit Kit Logo</dc:title>
      </cc:Work>
    </rdf:RDF>
  </metadata>
  <g
     inkscape:groupmode="layer"
     id="layer2"
     inkscape:label="Layer"
     style="display:none">
    <rect
       style="fill:#ffffff;fill-opacity:1;stroke:none"
       id="rect3825"
       width="256"
       height="256"
       x="0"
       y="0"
       ry="0" />
  </g>
  <g
     inkscape:label="Layer 1"
     inkscape:groupmode="layer"
     id="layer1"
     transform="translate(0,-796.36218)">
    <g
       id="g3819"
       transform="translate(-1.8978532,1.6261216)">
      <path
         sodipodi:nodetypes="cssssccssssc"
         inkscape:connector-curvature="0"
         id="rect3755-4"
         d="m 181.56313,935.55187 c 0.034,-29.82861 -3.63083,-48.39498 -9.83735,-79.47169 -3.62704,-18.16093 -3.70999,-33.18625 -19.3287,-32.80016 L 102.854,824.5047 c -18.513921,0.45766 -17.783961,13.36728 -21.165717,31.57548 -5.435268,29.26479 -6.937428,51.91987 -6.74862,79.47169 m 13.470624,-9.29692 c -0.10848,-23.42566 -1.322652,-33.24702 3.327996,-58.28727 2.932999,-15.79202 -1.731312,-28.73982 14.328857,-28.9875 l 39.70527,-0.61233 c 16.06016,-0.24768 12.98263,13.8488 16.12837,29.59983 5.38293,26.95294 6.79225,32.41681 6.76281,58.28727"
         style="fill:#3465a4;fill-opacity:1;stroke:#729fcf;stroke-width:4;stroke-miterlimit:4;stroke-opacity:1;stroke-dasharray:none" />
      <path
         sodipodi:nodetypes="sssssssss"
         inkscape:connector-curvature="0"
         id="rect3755"
         d="m 40.39163,861.4193 c 62.15342,-12.41305 121.76995,-12.14158 179.01246,0 18.11653,3.84265 33.42883,14.90924 33.42883,33.42882 l 0,83.19726 c 0,18.51957 -15.08866,30.85732 -33.42883,33.42882 -58.84575,8.2508 -118.21242,11.2922 -179.01246,0 -18.2082,-3.3818 -33.4288436,-14.90925 -33.4288436,-33.42882 l 0,-83.19726 c 0,-18.51958 15.2679116,-29.80179 33.4288436,-33.42882 z"
         style="fill:#3465a4;fill-opacity:1;stroke:#729fcf;stroke-width:4;stroke-miterlimit:4;stroke-opacity:1;stroke-dasharray:none" />
      <path
         sodipodi:nodetypes="ccccccccccccccccccccccccccccccccccccccccccc"
         style="fill:#ffffff;stroke:#729fcf;stroke-width:4;stroke-miterlimit:4;stroke-dasharray:none"
         d="m 188.45831,901.70451 c -1.78326,-19.33916 -18.63414,-25.88493 -39.69605,-27.8129 l 0,-20.59423 c -4.14871,-2.37678 -7.32853,-7.33773 -16.40263,-0.83952 l 0,20.66508 c -4.29085,-0.0162 -8.45368,0.0515 -12.81167,0.12148 l 0,-20.06032 c -7.90351,-5.28632 -12.78287,-2.18785 -16.50336,0.71355 l 0,19.80892 c -3.534107,0.0584 -6.772067,0.11052 -10.155954,0.0996 l -0.0024,-0.0832 -22.51218,-0.0954 -0.0636,17.43258 c 0,0 12.054168,-0.1828 11.852952,0.0384 6.611316,0.0277 8.748108,3.87434 9.361092,7.18884 l -0.1176,30.54803 c 0.456216,0.005 1.051296,0.0256 1.724808,0.12049 -0.543756,-10e-4 -1.125768,-0.007 -1.724232,-0.005 l -0.170856,42.79478 c -0.29826,2.07955 -1.534236,5.39226 -6.153348,5.38228 0.208128,0.18584 -11.86494,-0.0493 -11.86494,-0.0493 l -3.319008,19.48016 21.240948,0.082 c 3.952771,0.0202 8.086207,0.10224 11.904318,0.14144 l -0.3888,22.45473 c 4.0539,4.9872 10.90213,2.8393 16.89216,-0.3225 l 0,-21.77932 c 4.47643,0.11004 8.58206,0.16243 12.81167,0.17502 l 0,21.6555 c 4.53747,4.0224 9.79153,3.9454 16.40263,-0.3269 l 0,-21.62883 c 27.44694,-1.46755 46.38761,-8.30588 48.87294,-34.06538 2.00638,-20.74208 -7.71824,-30.03866 -23.28055,-33.83991 9.48205,-4.78189 15.43165,-13.24928 14.103,-27.40049 z m -23.06152,57.90079 c -0.07,20.26728 -34.78687,17.82681 -45.84883,17.79422 l 0,-35.93288 c 11.0652,0.0457 45.93254,-3.00053 45.84883,18.13866 z m -7.3937,-50.72598 c -0.0769,18.43905 -29.24106,16.17457 -38.45513,16.1394 l 0,-32.58949 c 9.21407,0.0352 38.52803,-2.7822 38.45513,16.45009 z"
         id="symbol"
         inkscape:connector-curvature="0" />
      <text
         xml:space="preserve"
         style="font-size:144px;font-style:normal;font-weight:bold;line-height:125%;letter-spacing:25px;word-spacing:0px;fill:#ffffff;fill-opacity:1;stroke:#729fcf;stroke-width:4;font-family:Sans;-inkscape-font-specification:Corbel Bold"
         x="261.91339"
         y="985.36798"
         id="text3771"
         sodipodi:linespacing="125%"><tspan
           sodipodi:role="line"
           x="261.91339"
           y="985.36798"
           id="tspan3775"
           style="font-style:normal;font-variant:normal;font-weight:bold;font-stretch:normal;letter-spacing:25px;word-spacing:0px;font-family:Corbel;-inkscape-font-specification:Corbel Bold">itkit</tspan></text>
    </g>
  </g>
</svg>
